# xmcd
#
# Track frame offsets:
#	150
#	16340
#	33230
#	48487
#	59860
#	70835
#	87532
#	101562
#	113992
#	128417
#	141812
#	156152
#	175195
#	187315
#
# Disc length: 2697 seconds
#
# Revision: 1
# Processed by: cddbd v1.4PL0 Copyright (c) Steve Scherf et al.
# Submitted via: audiograbber 1.82.01
#
DISCID=c80a870e
DTITLE=Bill Herms - Mein Leben - Meine Lieder
DYEAR=1900
DGENRE=
TTITLE0=San Antonio rose
TTITLE1=He´ll have to go
TTITLE2=Geisterreiter
TTITLE3=Red River Valley
TTITLE4=She´ll be coming ´round the mountain (Duett mit Tex Robinson)
TTITLE5=Es hängt ein Pferdehalfter an der Wand
TTITLE6=Der Geisterzug von Dixie
TTITLE7=Mein Koffer hat die ganze Welt gesehn
TTITLE8=Wabash cannonball
TTITLE9=Tom Dooley (Duett mit Tex Robinson)
TTITLE10=Das alte Haus von Rocky Docky
TTITLE11=Banks of Ohio (Duett mit Iris Mc Collins)
TTITLE12=So lange sich die Räder drehn
TTITLE13=Mir geht´s gut
EXTD=
EXTT0=
EXTT1=
EXTT2=
EXTT3=
EXTT4=
EXTT5=
EXTT6=
EXTT7=
EXTT8=
EXTT9=
EXTT10=
EXTT11=
EXTT12=
EXTT13=
PLAYORDER=
